<?xml version="1.0" encoding="UTF-8" standalone="no"?>
<svg width="356px" height="99px" viewBox="0 0 356 99" version="1.1" xmlns="http://www.w3.org/2000/svg" xmlns:xlink="http://www.w3.org/1999/xlink">
    <!-- Generator: Sketch 3.6.1 (26313) - http://www.bohemiancoding.com/sketch -->
    <title>pophome black</title>
    <desc>Created with Sketch.</desc>
    <defs></defs>
    <g id="Page-1" stroke="none" stroke-width="1" fill="none" fill-rule="evenodd">
        <g id="Desktop-HD" transform="translate(-76.000000, -47.000000)">
            <g id="pophome-black" transform="translate(76.000000, 47.000000)">
                <g id="noun_22715_cc" fill="#F5D76E">
                    <path d="M90.851,50.471 C93.419,45.66 94.896,40.182 94.896,34.358 C94.896,15.413 79.481,0 60.536,0 C44.979,0 31.817,10.397 27.603,24.605 C12.222,25.562 0,38.373 0,53.992 C0,70.23 13.211,83.441 29.45,83.441 C34.316,83.441 38.905,82.249 42.952,80.149 C47.179,90.695 57.499,98.167 69.536,98.167 C85.323,98.167 98.168,85.322 98.168,69.535 C98.167,62.213 95.389,55.538 90.851,50.471 L90.851,50.471 Z M60.536,6.544 C75.872,6.544 88.351,19.021 88.351,34.357 C88.351,38.512 87.423,42.45 85.783,45.994 C84.942,45.412 84.073,44.87 83.171,44.379 C81.268,30.425 69.278,19.633 54.81,19.633 C48.228,19.633 42.162,21.872 37.32,25.62 C36.362,25.353 35.384,25.134 34.389,24.965 C38.252,14.243 48.5,6.544 60.536,6.544 L60.536,6.544 Z M32.722,48.265 C32.722,36.086 42.63,26.178 54.809,26.178 C66.99,26.178 76.897,36.087 76.897,48.265 C76.897,60.447 66.99,70.353 54.809,70.353 C42.63,70.353 32.722,60.446 32.722,48.265 L32.722,48.265 Z M29.449,76.897 C16.819,76.897 6.544,66.622 6.544,53.992 C6.544,41.361 16.818,31.086 29.449,31.086 C30.25,31.086 31.038,31.14 31.818,31.222 C28.276,35.987 26.177,41.885 26.177,48.264 C26.177,59.119 32.249,68.582 41.175,73.437 C41.184,73.503 41.191,73.571 41.2,73.636 C37.763,75.703 33.745,76.897 29.449,76.897 L29.449,76.897 Z M69.535,91.623 C59.744,91.623 51.43,85.217 48.543,76.378 C48.598,76.331 48.651,76.283 48.705,76.235 C50.674,76.665 52.715,76.897 54.809,76.897 C69.267,76.897 81.249,66.122 83.166,52.181 C88.308,56.229 91.622,62.497 91.622,69.535 C91.623,81.715 81.715,91.623 69.535,91.623 L69.535,91.623 Z" id="Shape"></path>
                </g>
                <path d="M146.755,62.825 C144.994991,62.825 143.326675,62.522503 141.75,61.9175 C140.173325,61.312497 138.74334,60.4600055 137.46,59.36 L137.46,72.725 C137.46,73.4216702 137.221669,74.008331 136.745,74.485 C136.268331,74.9616691 135.700003,75.2 135.04,75.2 C134.34333,75.2 133.756669,74.9616691 133.28,74.485 C132.803331,74.008331 132.565,73.4216702 132.565,72.725 L132.565,36.92 C132.565,36.2599967 132.803331,35.6916691 133.28,35.215 C133.756669,34.738331 134.34333,34.5 135.04,34.5 C135.700003,34.5 136.268331,34.738331 136.745,35.215 C137.221669,35.6916691 137.46,36.2599967 137.46,36.92 L137.46,37.965 C138.74334,36.8649945 140.173325,36.012503 141.75,35.4075 C143.326675,34.802497 144.994991,34.5 146.755,34.5 C148.698343,34.5 150.531658,34.8758296 152.255,35.6275 C153.978342,36.3791704 155.48166,37.3966603 156.765,38.68 C158.04834,39.9633398 159.056663,41.4574915 159.79,43.1625 C160.523337,44.8675085 160.89,46.691657 160.89,48.635 C160.89,50.5783431 160.523337,52.4116581 159.79,54.135 C159.056663,55.858342 158.04834,57.3616603 156.765,58.645 C155.48166,59.9283398 153.978342,60.9458296 152.255,61.6975 C150.531658,62.4491704 148.698343,62.825 146.755,62.825 L146.755,62.825 Z M146.755,39.395 C145.47166,39.395 144.270839,39.633331 143.1525,40.11 C142.034161,40.5866691 141.053338,41.2466625 140.21,42.09 C139.366662,42.9333376 138.697502,43.9141611 138.2025,45.0325 C137.707498,46.1508389 137.46,47.3516603 137.46,48.635 C137.46,49.9183398 137.707498,51.1191611 138.2025,52.2375 C138.697502,53.3558389 139.366662,54.3366625 140.21,55.18 C141.053338,56.0233376 142.034161,56.6924975 143.1525,57.1875 C144.270839,57.6825025 145.47166,57.93 146.755,57.93 C148.03834,57.93 149.239161,57.6825025 150.3575,57.1875 C151.475839,56.6924975 152.456662,56.0233376 153.3,55.18 C154.143338,54.3366625 154.803331,53.3558389 155.28,52.2375 C155.756669,51.1191611 155.995,49.9183398 155.995,48.635 C155.995,47.3516603 155.756669,46.1508389 155.28,45.0325 C154.803331,43.9141611 154.143338,42.9333376 153.3,42.09 C152.456662,41.2466625 151.475839,40.5866691 150.3575,40.11 C149.239161,39.633331 148.03834,39.395 146.755,39.395 L146.755,39.395 Z M177.17,62.825 C175.226657,62.825 173.393342,62.4491704 171.67,61.6975 C169.946658,60.9458296 168.44334,59.9283398 167.16,58.645 C165.87666,57.3616603 164.85917,55.8675085 164.1075,54.1625 C163.35583,52.4574915 162.98,50.6333431 162.98,48.69 C162.98,46.746657 163.35583,44.913342 164.1075,43.19 C164.85917,41.4666581 165.87666,39.9633398 167.16,38.68 C168.44334,37.3966603 169.946658,36.3791704 171.67,35.6275 C173.393342,34.8758296 175.226657,34.5 177.17,34.5 C179.113343,34.5 180.937491,34.8758296 182.6425,35.6275 C184.347508,36.3791704 185.84166,37.3966603 187.125,38.68 C188.40834,39.9633398 189.42583,41.4666581 190.1775,43.19 C190.92917,44.913342 191.305,46.746657 191.305,48.69 C191.305,50.6333431 190.92917,52.4574915 190.1775,54.1625 C189.42583,55.8675085 188.40834,57.3616603 187.125,58.645 C185.84166,59.9283398 184.347508,60.9458296 182.6425,61.6975 C180.937491,62.4491704 179.113343,62.825 177.17,62.825 L177.17,62.825 Z M177.17,39.395 C175.88666,39.395 174.685839,39.6424975 173.5675,40.1375 C172.449161,40.6325025 171.468338,41.3016625 170.625,42.145 C169.781662,42.9883376 169.112502,43.9691611 168.6175,45.0875 C168.122497,46.2058389 167.875,47.4066603 167.875,48.69 C167.875,49.9733398 168.122497,51.1741611 168.6175,52.2925 C169.112502,53.4108389 169.781662,54.3916625 170.625,55.235 C171.468338,56.0783376 172.449161,56.738331 173.5675,57.215 C174.685839,57.6916691 175.88666,57.93 177.17,57.93 C178.45334,57.93 179.654161,57.6916691 180.7725,57.215 C181.890839,56.738331 182.871662,56.0783376 183.715,55.235 C184.558338,54.3916625 185.218331,53.4108389 185.695,52.2925 C186.171669,51.1741611 186.41,49.9733398 186.41,48.69 C186.41,47.4066603 186.162502,46.2058389 185.6675,45.0875 C185.172497,43.9691611 184.512504,42.9883376 183.6875,42.145 C182.862496,41.3016625 181.881672,40.6325025 180.745,40.1375 C179.608328,39.6424975 178.416673,39.395 177.17,39.395 L177.17,39.395 Z M210.005,62.825 C208.244991,62.825 206.576674,62.522503 205,61.9175 C203.423325,61.312497 201.99334,60.4600055 200.71,59.36 L200.71,72.725 C200.71,73.4216702 200.471669,74.008331 199.995,74.485 C199.518331,74.9616691 198.950003,75.2 198.29,75.2 C197.59333,75.2 197.006669,74.9616691 196.53,74.485 C196.053331,74.008331 195.815,73.4216702 195.815,72.725 L195.815,36.92 C195.815,36.2599967 196.053331,35.6916691 196.53,35.215 C197.006669,34.738331 197.59333,34.5 198.29,34.5 C198.950003,34.5 199.518331,34.738331 199.995,35.215 C200.471669,35.6916691 200.71,36.2599967 200.71,36.92 L200.71,37.965 C201.99334,36.8649945 203.423325,36.012503 205,35.4075 C206.576674,34.802497 208.244991,34.5 210.005,34.5 C211.948343,34.5 213.781658,34.8758296 215.505,35.6275 C217.228342,36.3791704 218.73166,37.3966603 220.015,38.68 C221.29834,39.9633398 222.306663,41.4574915 223.04,43.1625 C223.773337,44.8675085 224.14,46.691657 224.14,48.635 C224.14,50.5783431 223.773337,52.4116581 223.04,54.135 C222.306663,55.858342 221.29834,57.3616603 220.015,58.645 C218.73166,59.9283398 217.228342,60.9458296 215.505,61.6975 C213.781658,62.4491704 211.948343,62.825 210.005,62.825 L210.005,62.825 Z M210.005,39.395 C208.72166,39.395 207.520839,39.633331 206.4025,40.11 C205.284161,40.5866691 204.303337,41.2466625 203.46,42.09 C202.616662,42.9333376 201.947502,43.9141611 201.4525,45.0325 C200.957497,46.1508389 200.71,47.3516603 200.71,48.635 C200.71,49.9183398 200.957497,51.1191611 201.4525,52.2375 C201.947502,53.3558389 202.616662,54.3366625 203.46,55.18 C204.303337,56.0233376 205.284161,56.6924975 206.4025,57.1875 C207.520839,57.6825025 208.72166,57.93 210.005,57.93 C211.28834,57.93 212.489161,57.6825025 213.6075,57.1875 C214.725839,56.6924975 215.706662,56.0233376 216.55,55.18 C217.393337,54.3366625 218.053331,53.3558389 218.53,52.2375 C219.006669,51.1191611 219.245,49.9183398 219.245,48.635 C219.245,47.3516603 219.006669,46.1508389 218.53,45.0325 C218.053331,43.9141611 217.393337,42.9333376 216.55,42.09 C215.706662,41.2466625 214.725839,40.5866691 213.6075,40.11 C212.489161,39.633331 211.28834,39.395 210.005,39.395 L210.005,39.395 Z M249.275,62.825 C248.57833,62.825 247.991669,62.5866691 247.515,62.11 C247.038331,61.633331 246.8,61.0650033 246.8,60.405 L246.8,45.995 C246.8,45.0783288 246.625835,44.2258373 246.2775,43.4375 C245.929165,42.6491627 245.452503,41.952503 244.8475,41.3475 C244.242497,40.742497 243.545837,40.2658351 242.7575,39.9175 C241.969163,39.5691649 241.116671,39.395 240.2,39.395 C239.319995,39.395 238.476671,39.5691649 237.67,39.9175 C236.863329,40.2658351 236.166669,40.742497 235.58,41.3475 C234.99333,41.952503 234.525835,42.6491627 234.1775,43.4375 C233.829165,44.2258373 233.655,45.0783288 233.655,45.995 C233.655,46.1416674 233.618334,46.2883326 233.545,46.435 L233.545,60.405 C233.545,61.0650033 233.306669,61.633331 232.83,62.11 C232.353331,62.5866691 231.785003,62.825 231.125,62.825 C230.42833,62.825 229.841669,62.5866691 229.365,62.11 C228.888331,61.633331 228.65,61.0650033 228.65,60.405 L228.65,21.85 C228.65,21.1899967 228.888331,20.6216691 229.365,20.145 C229.841669,19.668331 230.42833,19.43 231.125,19.43 C231.785003,19.43 232.353331,19.668331 232.83,20.145 C233.306669,20.6216691 233.545,21.1899967 233.545,21.85 L233.545,36.645 C234.498338,35.9483299 235.552494,35.4166685 236.7075,35.05 C237.862506,34.6833315 239.026661,34.5 240.2,34.5 C241.776674,34.5 243.26166,34.802497 244.655,35.4075 C246.04834,36.012503 247.267495,36.8374948 248.3125,37.8825 C249.357505,38.9275052 250.182497,40.1466597 250.7875,41.54 C251.392503,42.9333403 251.695,44.4183255 251.695,45.995 L251.695,60.405 C251.695,61.0650033 251.456669,61.633331 250.98,62.11 C250.503331,62.5866691 249.935003,62.825 249.275,62.825 L249.275,62.825 Z M269.185,62.825 C267.241657,62.825 265.408342,62.4491704 263.685,61.6975 C261.961658,60.9458296 260.45834,59.9283398 259.175,58.645 C257.89166,57.3616603 256.87417,55.8675085 256.1225,54.1625 C255.370829,52.4574915 254.995,50.6333431 254.995,48.69 C254.995,46.746657 255.370829,44.913342 256.1225,43.19 C256.87417,41.4666581 257.89166,39.9633398 259.175,38.68 C260.45834,37.3966603 261.961658,36.3791704 263.685,35.6275 C265.408342,34.8758296 267.241657,34.5 269.185,34.5 C271.128343,34.5 272.952491,34.8758296 274.6575,35.6275 C276.362508,36.3791704 277.85666,37.3966603 279.14,38.68 C280.42334,39.9633398 281.440829,41.4666581 282.1925,43.19 C282.94417,44.913342 283.32,46.746657 283.32,48.69 C283.32,50.6333431 282.94417,52.4574915 282.1925,54.1625 C281.440829,55.8675085 280.42334,57.3616603 279.14,58.645 C277.85666,59.9283398 276.362508,60.9458296 274.6575,61.6975 C272.952491,62.4491704 271.128343,62.825 269.185,62.825 L269.185,62.825 Z M269.185,39.395 C267.90166,39.395 266.700839,39.6424975 265.5825,40.1375 C264.464161,40.6325025 263.483337,41.3016625 262.64,42.145 C261.796662,42.9883376 261.127502,43.9691611 260.6325,45.0875 C260.137497,46.2058389 259.89,47.4066603 259.89,48.69 C259.89,49.9733398 260.137497,51.1741611 260.6325,52.2925 C261.127502,53.4108389 261.796662,54.3916625 262.64,55.235 C263.483337,56.0783376 264.464161,56.738331 265.5825,57.215 C266.700839,57.6916691 267.90166,57.93 269.185,57.93 C270.46834,57.93 271.669161,57.6916691 272.7875,57.215 C273.905839,56.738331 274.886662,56.0783376 275.73,55.235 C276.573337,54.3916625 277.233331,53.4108389 277.71,52.2925 C278.186669,51.1741611 278.425,49.9733398 278.425,48.69 C278.425,47.4066603 278.177502,46.2058389 277.6825,45.0875 C277.187497,43.9691611 276.527504,42.9883376 275.7025,42.145 C274.877496,41.3016625 273.896672,40.6325025 272.76,40.1375 C271.623327,39.6424975 270.431673,39.395 269.185,39.395 L269.185,39.395 Z M292.615,36.15 C294.338342,35.0499945 296.18999,34.5 298.17,34.5 C299.710007,34.5 301.158326,34.8208301 302.515,35.4625 C303.871673,36.1041699 305.026662,36.9933277 305.98,38.13 C306.933338,36.9933277 308.088326,36.1041699 309.445,35.4625 C310.801673,34.8208301 312.231659,34.5 313.735,34.5 C315.165007,34.5 316.49416,34.7658307 317.7225,35.2975 C318.950839,35.8291693 320.032495,36.5624953 320.9675,37.4975 C321.902504,38.4325047 322.63583,39.5233271 323.1675,40.77 C323.699169,42.0166729 323.965,43.3366597 323.965,44.73 L323.965,60.405 C323.965,61.0650033 323.726669,61.633331 323.25,62.11 C322.773331,62.5866691 322.205003,62.825 321.545,62.825 C320.884996,62.825 320.316669,62.5866691 319.84,62.11 C319.363331,61.633331 319.125,61.0650033 319.125,60.405 L319.125,44.73 C319.125,43.996663 318.987501,43.3091699 318.7125,42.6675 C318.437498,42.0258301 318.052502,41.4575025 317.5575,40.9625 C317.062497,40.4674975 316.485003,40.0825014 315.825,39.8075 C315.164996,39.5324986 314.468337,39.395 313.735,39.395 C313.001663,39.395 312.31417,39.5324986 311.6725,39.8075 C311.03083,40.0825014 310.462502,40.4674975 309.9675,40.9625 C309.472497,41.4575025 309.087501,42.0258301 308.8125,42.6675 C308.537498,43.3091699 308.4,43.996663 308.4,44.73 L308.4,60.405 C308.4,61.0650033 308.161669,61.633331 307.685,62.11 C307.208331,62.5866691 306.640003,62.825 305.98,62.825 C305.28333,62.825 304.696669,62.5866691 304.22,62.11 C303.743331,61.633331 303.505,61.0650033 303.505,60.405 L303.505,44.73 C303.505,43.996663 303.367501,43.3091699 303.0925,42.6675 C302.817498,42.0258301 302.432502,41.4575025 301.9375,40.9625 C301.442497,40.4674975 300.87417,40.0825014 300.2325,39.8075 C299.59083,39.5324986 298.903337,39.395 298.17,39.395 C297.436663,39.395 296.740003,39.5324986 296.08,39.8075 C295.419996,40.0825014 294.851669,40.4674975 294.375,40.9625 C293.898331,41.4575025 293.522501,42.0258301 293.2475,42.6675 C292.972498,43.3091699 292.835,43.996663 292.835,44.73 C292.835,44.8400006 292.798333,45.0049989 292.725,45.225 L292.725,60.405 C292.725,61.0650033 292.486669,61.633331 292.01,62.11 C291.533331,62.5866691 290.965003,62.825 290.305,62.825 C289.60833,62.825 289.021669,62.5866691 288.545,62.11 C288.068331,61.633331 287.83,61.0650033 287.83,60.405 L287.83,36.59 C287.83,35.8933299 288.068331,35.3066691 288.545,34.83 C289.021669,34.353331 289.60833,34.115 290.305,34.115 C291.625006,34.115 292.394999,34.7933266 292.615,36.15 L292.615,36.15 Z M353.17,49.955 L332.325,49.955 C332.471667,51.0916724 332.81083,52.1458285 333.3425,53.1175 C333.874169,54.0891715 334.552496,54.9324964 335.3775,55.6475 C336.202504,56.3625036 337.137494,56.9216647 338.1825,57.325 C339.227505,57.7283354 340.336661,57.93 341.51,57.93 C342.20667,57.93 342.839164,57.8750006 343.4075,57.765 C343.975836,57.6549995 344.507497,57.4808345 345.0025,57.2425 C345.497502,57.0041655 345.992497,56.7108351 346.4875,56.3625 C346.982502,56.0141649 347.52333,55.6200022 348.11,55.18 C348.330001,54.9966658 348.559165,54.840834 348.7975,54.7125 C349.035834,54.584166 349.356664,54.52 349.76,54.52 C350.45667,54.52 351.043331,54.758331 351.52,55.235 C351.996669,55.7116691 352.235,56.2799967 352.235,56.94 C352.235,57.3433354 352.161667,57.6733321 352.015,57.93 C351.868332,58.186668 351.703334,58.4249989 351.52,58.645 C350.93333,59.3050033 350.245837,59.9008307 349.4575,60.4325 C348.669162,60.9641693 347.825838,61.4041649 346.9275,61.7525 C346.029162,62.1008351 345.112504,62.3666658 344.1775,62.55 C343.242495,62.7333343 342.353337,62.825 341.51,62.825 C339.566657,62.825 337.733342,62.4491704 336.01,61.6975 C334.286658,60.9458296 332.783339,59.9283398 331.5,58.645 C330.21666,57.3616603 329.19917,55.8675085 328.4475,54.1625 C327.695829,52.4574915 327.32,50.6333431 327.32,48.69 C327.32,46.746657 327.695829,44.913342 328.4475,43.19 C329.19917,41.4666581 330.21666,39.9633398 331.5,38.68 C332.783339,37.3966603 334.286658,36.3791704 336.01,35.6275 C337.733342,34.8758296 339.566657,34.5 341.51,34.5 C343.380009,34.5 345.139991,34.8116636 346.79,35.435 C348.440008,36.0583365 349.90666,36.9474942 351.19,38.1025 C352.473339,39.2575058 353.499996,40.632492 354.27,42.2275 C355.040004,43.822508 355.479999,45.5733238 355.59,47.48 C355.626667,48.213337 355.397502,48.8091644 354.9025,49.2675 C354.407497,49.7258356 353.830003,49.955 353.17,49.955 L353.17,49.955 Z M341.51,39.395 C339.603324,39.395 337.880007,39.9174948 336.34,40.9625 C334.799992,42.0075052 333.663337,43.3733249 332.93,45.06 L350.035,45.06 C349.33833,43.3366581 348.210841,41.9616718 346.6525,40.935 C345.094159,39.9083282 343.380009,39.395 341.51,39.395 L341.51,39.395 Z" id="pophome" fill="#1C1C1C"></path>
            </g>
        </g>
    </g>
</svg>